HIERARCHY
ROOT pelvis
{
  OFFSET 0 100 0
  CHANNELS 6 Xposition Yposition Zposition Zrotation Xrotation Yrotation
  JOINT pelvis_right_femur
  {
    OFFSET -10.78128 -3.44521 -0.5502486
    CHANNELS 3 Zrotation Xrotation Yrotation
    JOINT right_femur_tibia
    {
      OFFSET -0.8047443 -44.0398 -0.1307829
      CHANNELS 3 Zrotation Xrotation Yrotation
      JOINT right_tibia_foot
      {
        OFFSET 3.006224 -47.83518 -5
        CHANNELS 3 Zrotation Xrotation Yrotation
        End Site
        {
          OFFSET 0 -5 15
        }
      }
    }
  }
  JOINT pelvis_left_femur
  {
    OFFSET 10.78128 -3.44521 -0.5502486
    CHANNELS 3 Zrotation Xrotation Yrotation
    JOINT left_femur_tibia
    {
      OFFSET 0.8047443 -44.0398 -0.1307829
      CHANNELS 3 Zrotation Xrotation Yrotation
      JOINT left_tibia_foot
      {
        OFFSET -4.370144 -48.10324 -4.275266
        CHANNELS 3 Zrotation Xrotation Yrotation
        End Site
        {
          OFFSET 0 -5 15
        }
      }
    }
  }
  JOINT pelvis_spine1
  {
    OFFSET 0 6.468898 -3.129235
    CHANNELS 3 Zrotation Xrotation Yrotation
    JOINT spine1
    {
      OFFSET 0 23.15396 4.99043
      CHANNELS 3 Zrotation Xrotation Yrotation
      JOINT spine2
      {
        OFFSET 0 20.79997 -5.064912
        CHANNELS 3 Zrotation Xrotation Yrotation
        JOINT neck
        {
          OFFSET 0 14.38658 9.616178
          CHANNELS 3 Zrotation Xrotation Yrotation
          End Site
          {
            OFFSET 0 20 0
          }
        }
      }
      JOINT right_manubrium
      {
        OFFSET -5.722621 16.35077 3.967754
        CHANNELS 3 Zrotation Xrotation Yrotation
        JOINT right_clavicle
        {
          OFFSET -13.16364 1.694482 -4.693211
          CHANNELS 3 Zrotation Xrotation Yrotation
          JOINT right_humerus
          {
            OFFSET -28.5034 -0.3100689 -2.792744
            CHANNELS 3 Zrotation Xrotation Yrotation
            JOINT right_radius
            {
              OFFSET -25.15693 0.02248979 -1.271978
              CHANNELS 3 Zrotation Xrotation Yrotation
              End Site
              {
                OFFSET -15 0 0
              }
            }
          }
        }
      }
      JOINT left_manubrium
      {
        OFFSET 5.722621 16.35077 3.967754
        CHANNELS 3 Zrotation Xrotation Yrotation
        JOINT left_clavicle
        {
          OFFSET 13.16364 1.694482 -4.693211
          CHANNELS 3 Zrotation Xrotation Yrotation
          JOINT left_humerus
          {
            OFFSET 29.39168 -1.063119 -2.237045
            CHANNELS 3 Zrotation Xrotation Yrotation
            JOINT left_radius
            {
              OFFSET 24.59957 -0.9528479 0.9047498
              CHANNELS 3 Zrotation Xrotation Yrotation
              End Site
              {
                OFFSET 15 -0 -0
              }
            }
          }
        }
      }
    }
  }
}
MOTION
Frames: 11
Frame Time: 0.0416666666667
0 103.5113 0 0.7112135 -0.8142451 0.7147976 1.907594 -22.37829 4.84397 -0 33.58306 -0 -2.758316 -8.122767 -4.175207 -6.298606 11.92514 -17.17369 0 -0.9579747 0 2.379874 -21.55159 19.98844 -3.833798 -0.9950734 3.055025 2.254033 7.970722 -7.586628 1.238984 21.78661 7.268877 3.060141 -22.44223 8.907777 5.072181 -17.36028 10.58891 85.38355 33.12967 -17.86839 -0 0 14.28104 -12.50367 9.151542 7.921769 6.020899 -19.02103 -2.43911 -89.21938 28.18947 16.01652 0 0 -19.12332 2.417936 12.15877 10.91026
0.4797005 102.4053 3.612904 0.7386143 -0.7591803 1.419762 1.906671 -22.31671 4.980103 -0 33.79364 -0 -2.621184 -8.309082 -4.218275 -6.321839 11.83236 -17.22925 0 -0.8047565 0 2.264978 -21.54521 19.99099 -3.867827 -0.9570501 3.077375 2.261501 7.899423 -7.571358 1.240731 21.78246 7.282291 3.075521 -22.40998 8.909017 5.193463 -17.27969 10.57699 85.21953 33.334 -17.78688 -0 0 14.34471 -12.39906 9.140518 7.885116 5.999852 -18.90446 -2.374987 -89.25641 28.36161 16.01927 0 0 -19.05566 2.229436 12.03943 11.14412
0.8418847 101.1038 7.111717 0.2986042 -0.07754933 1.944344 2.960657 -25.6886 4.645816 -0 26.85004 -0 -4.00317 -8.989456 -3.972049 -5.772725 13.65445 -17.1601 -0 0.2129001 -0 3.02455 -21.72952 19.68721 -3.421802 -1.246269 2.884961 2.713377 8.232961 -8.14838 1.142308 21.53525 7.244658 3.048456 -23.21724 8.92089 4.784005 -17.55595 10.77497 86.49092 33.19787 -19.65915 -0 0 13.32056 -11.71933 9.426066 7.328135 6.353185 -20.24563 -2.575629 -88.70014 27.38516 15.30318 0 0 -21.35737 3.969142 13.04487 8.999048
1.120724 99.60578 10.49344 -0.0190686 0.4296752 2.362938 3.676827 -28.03531 4.429435 -0 22.02526 -0 -4.995661 -9.517991 -3.761986 -5.391623 14.88647 -17.1883 -0 0.4070575 -0 3.684644 -21.92992 19.56497 -3.125323 -1.471361 2.754108 3.031658 8.464001 -8.551773 1.066055 21.3533 7.225906 3.028544 -23.82457 8.942458 4.488141 -17.8248 10.91454 87.34358 33.09986 -20.89996 -0 0 12.70073 -11.23246 9.611118 6.960655 6.61105 -21.18239 -2.703965 -88.39036 26.69282 14.93103 0 0 -22.91361 5.250627 13.77024 7.433971
1.31839 98.01937 13.89735 -0.2448559 0.5707064 2.686123 4.237281 -29.56731 4.217418 -0 18.4241 -0 -5.721868 -9.520411 -3.726179 -5.091587 15.81437 -16.89328 -0 2.20235 -0 3.796561 -21.77941 19.17917 -2.830181 -1.588042 2.653978 3.227275 8.7058 -8.829952 1.040547 21.26934 7.160063 2.995356 -24.10521 8.89919 4.172951 -17.866 11.01625 88.18135 32.70482 -21.96065 -0 0 11.93021 -11.09404 9.793759 6.698377 6.754539 -21.93293 -2.88641 -87.96306 26.02933 14.34228 0 0 -24.16183 6.200631 14.15015 6.268276
1.448565 96.43709 17.42016 -0.3806294 0.4570727 2.931542 4.633503 -30.40241 4.029002 -0 16.03148 -0 -6.185234 -9.176988 -3.808183 -4.884163 16.44963 -16.4143 -0 4.893874 -0 3.525745 -21.40984 18.65727 -2.568888 -1.617503 2.584281 3.321302 8.925417 -8.995315 1.05169 21.25943 7.071204 2.957965 -24.1365 8.817647 3.886047 -17.74275 11.08223 88.9066 32.16761 -22.78271 -0 0 11.13831 -11.19468 9.95616 6.530425 6.804731 -22.47454 -3.084201 -87.5063 25.46275 13.66755 0 0 -25.07425 6.808197 14.26212 5.513761
1.521446 94.94603 21.15715 -0.4353325 0.1091865 3.11245 4.906937 -30.61306 3.874011 -0 14.63954 -0 -6.400574 -8.535691 -4.014338 -4.75268 16.81767 -15.7352 -0 8.66205 -0 2.85431 -20.79479 17.97924 -2.327619 -1.557598 2.54509 3.327344 9.123897 -9.060976 1.098634 21.31676 6.956496 2.917787 -23.92798 8.694126 3.634016 -17.43937 11.11858 89.53679 31.51415 -23.41706 -0 0 10.29058 -11.5031 10.11016 6.432559 6.765872 -22.82912 -3.295848 -87.0001 24.98527 12.86908 0 0 -25.71725 7.080921 14.11621 5.156767
1.54594 93.62823 25.19038 -0.4189575 -0.4342011 3.238805 5.088759 -30.24443 3.771055 -0 14.0761 -0 -6.380446 -7.688188 -4.336873 -4.679919 16.90195 -14.87447 -0 13.46436 -0 1.814886 -19.93276 17.17253 -2.102514 -1.412443 2.541389 3.258839 9.295722 -9.03621 1.177547 21.43008 6.817046 2.87725 -23.50454 8.530703 3.429657 -16.96925 11.13108 90.05823 30.79499 -23.87597 -0 0 9.407731 -11.97644 10.26101 6.390292 6.645608 -23.00474 -3.508987 -86.45871 24.60282 11.96779 0 0 -26.12071 7.030413 13.73133 5.182486
1.528844 92.56428 29.59317 -0.3395188 -1.149652 3.315588 5.2077 -29.28305 3.74357 -0 14.19269 -0 -6.126394 -6.721276 -4.77573 -4.643906 16.64371 -13.8328 -0 19.34513 -0 0.4164083 -18.79404 16.25981 -1.887779 -1.180915 2.583845 3.124031 9.436253 -8.923164 1.286865 21.59128 6.64983 2.837823 -22.87657 8.324842 3.284716 -16.34057 11.12451 90.45139 30.04977 -24.1578 -0 0 8.513454 -12.58743 10.41608 6.395625 6.445983 -22.9995 -3.711118 -85.89544 24.32181 10.98499 0 0 -26.29671 6.656595 13.10546 5.591511
1.475855 91.83437 34.42961 -0.2037536 -2.018447 3.342094 5.285103 -27.64806 3.817632 -0 14.86196 -0 -5.63296 -5.739717 -5.327086 -4.614381 15.92315 -12.60772 -0 26.33159 -0 -1.331349 -17.33371 15.27964 -1.679125 -0.8603692 2.691082 2.926717 9.540066 -8.715986 1.425594 21.79265 6.44926 2.800093 -22.04921 8.071847 3.211063 -15.57195 11.10313 90.67709 29.31898 -24.23056 -0 0 7.659617 -13.31825 10.58305 6.451338 6.165476 -22.79827 -3.88546 -85.33792 24.15355 9.970499 0 0 -26.22674 5.951313 12.22531 6.396013
1.393005 91.51235 39.74771 -0.02186393 -3.011365 3.309889 5.338261 -25.19395 4.020467 -0 15.91762 -0 -4.902497 -4.900538 -5.967955 -4.541745 14.53972 -11.20586 -0 34.34141 -0 -3.391839 -15.50409 14.30326 -1.47358 -0.4521285 2.892763 2.670006 9.601628 -8.402931 1.590889 22.022 6.207695 2.763141 -21.03693 7.766522 3.218954 -14.71234 11.07266 90.66821 28.65447 -24.02392 -0 0 6.949586 -14.15029 10.77061 6.57258 5.802726 -22.37738 -4.007094 -84.84247 24.11297 9.03203 0 0 -25.86143 4.913085 11.08079 7.60235
